<svg width="585" height="585" xmlns="http://www.w3.org/2000/svg" fill="none">
 <mask height="585" width="585" y="0" x="0" maskUnits="userSpaceOnUse" id="mask0_2_13">
  <path id="svg_1" fill="url(#paint0_radial_2_13)" d="m585,292.5c0,161.543 -130.957,292.5 -292.5,292.5c-161.543,0 -292.5,-130.957 -292.5,-292.5c0,-161.543 130.957,-292.5 292.5,-292.5c161.543,0 292.5,130.957 292.5,292.5z"/>
 </mask>
 <defs>
  <radialGradient gradientTransform="translate(292.958 292.042) rotate(90) scale(292.958 292.958)" gradientUnits="userSpaceOnUse" r="1" cy="0" cx="0" id="paint0_radial_2_13">
   <stop/>
   <stop stop-opacity="0" offset="1"/>
  </radialGradient>
  <linearGradient y2="0.64046" x2="0.81704" y1="0.24022" x1="0.36933" id="paint1_linear_2_13">
   <stop stop-color="#41D1FF"/>
   <stop stop-color="#BD34FE" offset="1"/>
  </linearGradient>
  <linearGradient y2="1" x2="0.81936" y1="0.26" x1="-0.04191" id="paint2_linear_2_13">
   <stop stop-color="#41D1FF"/>
   <stop stop-color="#BD34FE" offset="1"/>
  </linearGradient>
 </defs>
 <g>
  <title>Layer 1</title>
  <g id="svg_2" mask="url(#mask0_2_13)">
   <path id="svg_3" fill="url(#paint1_linear_2_13)" d="m585,292.5c0,161.543 -130.957,292.5 -292.5,292.5c-161.543,0 -292.5,-130.957 -292.5,-292.5c0,-161.543 130.957,-292.5 292.5,-292.5c161.543,0 292.5,130.957 292.5,292.5z"/>
  </g>
  <path id="svg_4" fill="url(#paint2_linear_2_13)" d="m281,182c27.614,0 50,-22.386 50,-50l70,0c16.569,0 30,13.431 30,30l0,70.158c25.744,2.037 46,23.574 46,49.842c0,26.268 -20.256,47.805 -46,49.842l0,70.158c0,16.569 -13.431,30 -30,30l-70,0c0,27.614 -22.386,50 -50,50c-27.614,0 -50,-22.386 -50,-50l-70,0c-16.569,0 -30,-13.431 -30,-30l0,-70c27.614,0 50,-22.386 50,-50c0,-27.614 -22.386,-50 -50,-50l0,-70c0,-16.569 13.431,-30 30,-30l70,0c0,27.614 22.386,50 50,50z" clip-rule="evenodd" fill-rule="evenodd"/>
  <g>
   <g transform="matrix(1.49121, 0, 0, -1.49121, -130, 303.995)">
    <g>
     <path fill="#41b883" d="m298.28477,126.87085l-22.669,-39.264l-22.669,39.264l-75.491,0l98.16,-170.02l98.16,170.02l-75.491,0z"/>
    </g>
    <g>
     <path fill="#34495e" d="m298.28477,126.87085l-22.669,-39.264l-22.669,39.264l-36.227,0l58.896,-102.01l58.896,102.01l-36.227,0z"/>
    </g>
   </g>
  </g>
  <path stroke="#fbde54" stroke-width="10" p-id="4355" fill="#fbde54" d="m459.00813,443.95745l-27.30588,-27.30588c28.48881,-34.15699 26.68977,-85.46642 -5.24924,-117.38078c-16.46239,-16.46239 -38.34653,-25.53149 -61.61074,-25.53149s-45.14835,9.0691 -61.61074,25.53149c-16.46239,16.46239 -25.53149,38.34653 -25.53149,61.61074c0,23.28886 9.0691,45.173 25.53149,61.63539c16.73348,16.75812 38.86406,25.60542 61.48752,25.60542c11.50889,0 23.16564,-2.29192 34.28022,-7.02362c3.99238,-1.70046 5.86534,-6.30894 4.16489,-10.27667c-1.70046,-3.99238 -6.2843,-5.86534 -10.27667,-4.16489c-26.9855,11.48424 -57.79087,5.49568 -78.51673,-15.23018c-13.50507,-13.50507 -20.94765,-31.42148 -20.94765,-50.52081c0,-19.07469 7.44258,-37.01573 20.94765,-50.52081s31.42148,-20.94765 50.52081,-20.94765s36.99109,7.44258 50.49616,20.94765c27.45375,27.45375 27.77412,72.45423 0.73933,100.27764c-0.12322,0.14787 -0.17251,0.29573 -0.29573,0.4436c-0.14787,0.12322 -0.32038,0.17251 -0.4436,0.32038a7.83886,7.83886 0 0 0 0,11.11458l32.53047,32.53047c1.52795,1.52795 3.54878,2.29192 5.54497,2.29192c2.02083,0 4.01702,-0.76397 5.54497,-2.29192c3.05589,-3.08054 3.05589,-8.05868 0,-11.11458zm0,0"/>
 </g>
</svg>